<?xml version="1.0" encoding="UTF-8"?>
<svg id="Layer_1" data-name="Layer 1" xmlns="http://www.w3.org/2000/svg" viewBox="0 0 471.92 768">
  <defs>
    <style>
      .cls-1 {
        fill: #fff;
      }
    </style>
  </defs>
  <g>
    <path class="cls-1" d="M200.59,462.22c-9.32-2.55-16.49-6.69-23.59-12.7-3.63-3.07-7.2-5.71-10.47-9.32-5.07-5.6-10.46-10.76-16.33-15.6l-9.19-5.83-12.43-6.67c-5.94-3.18-10.76-7.14-15.43-11.98l-7.58-7.85c-2.15-2.23-5.13-4.52-8.22-5.2-7.28-1.6-14.54-1.41-21.88-.7-3.93.38-7.65.17-11.46-.47-5.43-.91-8.91-3.8-11.96-8.27l-4.06-4.2-2.74-3.87c2.51-7.26,7.91-12.87,14.5-16.59,7.03-3.97,12.22-9.07,16.82-15.65,7.15-10.23,14.84-19.84,24.38-27.9,4.03-3.4,8.4-5.89,11.97-9.75,6.13-6.63,11.14-13.62,16.94-20.62,9.42-11.38,24.16-17.37,38.74-16.52,13.12-6.75,28.04-7.26,39.96,1.82l18.1,13.79c4.77-2.83,8.78-6.32,12.4-10.45,4.18-4.77,8.74-8.46,14-11.96,4.44-2.96,8.52-5.97,13.56-7.88,5.53-2.1,11.55-2.74,17.3-.49,7.34,2.87,14.64,6.19,21,11,11.82,8.94,20.35,20.79,28.39,32.97,2.86,4.33,5.65,7.95,7.97,12.59,2.49,5,6.13,9.23,8.85,14.16l12.81,23.32c4.38,2.27,8,5.29,10.7,9.49l7.39,11.49,8.01,11.97,3.08,2.24,7.93,6.49c2.25,1.84,3.04,4.56,1.39,6.82.1,1.95-.31,3.74-1.13,5.63l-12.24,17.4c-8.05,11.43-26.94,28.02-39.88,34.26-4.49,7.55-9.09,14.56-15.21,20.8-9.32,9.51-21.47,14.84-34.93,14.7l-23.77-1.86-10.62-.71c-4.83-.32-9.2-1.58-13.79-2.88-4.12-1.17-8.03-2.29-11.81-4.41-8.21-.4-16.04-1.6-23.74-4.46-4.59-1.71-8.85-4.78-13.72-6.11ZM318.82,301.21c2.84,2.48,5.58,4.13,8.05,6.77l7.97,8.49c7.77,8.28,15.16,16.52,25.16,22.84l-8.95-17.1c-3.46-5.64-6.98-11.13-10.5-16.69l-8.37-13.21c-7.7-12.15-16.5-23.39-28.02-32.3-5.46-4.23-11.65-6.94-17.82-9.88-12.71-6.05-23.28-.06-33.85,7.79-9.68,5.66-14.24,14.91-24.03,20.81,14.65,2.1,22.75-6.43,31.86-9.03,3.4-.97,8.29-.92,11.65.45,4.45,1.81,7.92,4.78,12.17,6.86,12.84,6.28,23.8,14.68,34.67,24.2ZM224.05,278.78l-8.52-6.63c-4.66-3.62-9.13-7.03-14.29-9.98-9.61-4.3-20.11-3.03-29.83.75,6.81,1.64,12.29,4.09,17.34,8.25,10.59,7.8,22.38,12.38,35.31,7.6ZM270.17,274.89l10.19,1.72c-11.22-8.7-18.82-7.48-31.39-.4,7.18-.94,13.88-2.55,21.2-1.32ZM248.83,340.47c3.75,2.13,7.65,3.14,12.04,1.7l16-12.36c-1.54,2.08-2.96,3.86-4.77,5.29l-8.87,7.02c4.85-.77,9.48-1.45,13.9,1.45,5.13-1.6,10.19-1.31,15.42-.18l10.09,5.12c4.04-3.45,7.71-7.11,12.51-9.39l-11.57,10.09c5.7,4.42,12.55-1.05,18.32-5.08l5.26-3.67c-4.4,5.26-10.49,9.97-18.16,11.77l9.43,4.03c5.11,2.18,9.64,4.75,14.08,8.17l11.19,8.63c6.9.46,12.58,2.52,18.9,4.87,11.57,4.29,23.37,6.57,35.72,9.38-3.67-2.7-6.68-5.01-8.56-9.2s-7.23-4.8-13.93-14.68l-13.8-20.35c-4.68-2.72-8.61-5.82-12.82-9.26l-17.92-17.72-7.8-8.17-10.04-8.14-16.46-11.57c-13.82-9.71-21.81-13.14-39.78-11.16-5.52.61-11.1,1.38-16.32,3.07-4.91,1.59-9.54,2.67-14.46-.1-6.32,2.97-13.27,3.38-20.04,2.12-7.63-1.86-14.07-5.52-20.25-10.2-5.27-4-11.48-6.65-17.95-7.16-6.39,4.65-12.68,5.11-18.18,10.57l-8.32,8.26c-11.74,11.65-22.24,23.98-32.35,37.06l-12.47,16.13c-5.49,7.1-12.48,13.16-20.08,17.88l-16.86,10.47-8.24,5.76,9.48,1.35c3.91.56,7.44,2.42,10.79,4.33l22.71-4.82c5.42-1.15,11.21-.52,16.44-2.35,6.12-2.14,11.42-5.73,16.93-9.08,8.41-5.13,16.5-10.03,25.31-14.42,5.93-2.95,12.01-4.97,18.64-5.43,5.5-.39,10.5-1.7,15.55-4.12-7.93-4.98-15.08-10.57-16.07-20.75,2.52,6.99,6.34,12.39,12.44,16.66l5.34,3.73c8.27-4.13,18.03-1.31,26.14,3.12,5.21,2.85,10.48,3.85,16.43,4.1l11.14.46,8.46.07-3.04-2.59-.21-.61c-1.46,2.31-4.11,2.98-6.88,1.84-1.77-.73-3.48-1.83-5.13-3.14-1.71,1.8-4.25,2.65-6.91,2.86s-5.21-.61-5.98-3.47l-2.05-7.58-1.83-9.51c1.5,2.59,2.13,5.18,2.88,8.05l2.35,9.01c.75,2.88,6.21,2.61,10.58.45-.18-8.24-.26-15.93.79-23.81l.19,8.51-.06,13.81c1.69,1.97,4.7,3.37,7.52,3.91,1.72.33,3.85-.92,4.3-2.6l5.46-20.88c.29,2.1.02,4.21-.54,6.44l-3.96,15.74-.08.3ZM58.8,363.49l16.25-9.59c11-6.49,18.79-15.81,26.5-25.64l16.04-20.48c6.26-8,12.98-15.34,20.13-22.52l8.79-8.82c2.43-2.44,5.02-5.08,8.08-6.61,3.54-1.77,7.1-2.91,10.36-5.28-13.32.26-25.85,6.19-34.03,16.27-5.88,7.24-11.08,14.42-17.51,21.1-3.45,3.59-7.63,5.99-11.45,9.21-9.47,7.99-17.13,17.4-24.24,27.51-4.53,6.45-9.86,11.33-16.51,15.41-6.48,3.98-11.49,9.25-14.95,16.04,1.47.31,2.84-.04,3.76-.85,2.69-2.37,5.54-3.83,8.78-5.74ZM383.86,369.38l-9.31-14.31c-2.25-3.45-4.09-7.07-7.93-9.25l9.62,14.73c2.19,3.36,3.85,6.89,7.62,8.84ZM218.9,342.25l-11.03-5.01c-5.52-2.51-11.71-2.83-17.34-.63,6.37,3.58,13.06,5.23,20.06,5.71l8.31-.07ZM334.07,367.23c-5.9-5.18-12.1-8.83-19.47-11.15-2.5-.79-5.3-3.13-7.78-3.49l-8.16-1.17,2.84-2.47-4.61-2.3c-5.26-2.63-11.01-4.27-17.25-2.19l19.51,7.74c2.88,1.14,5.55,2.6,8.1,4.33,5.43,3.7,10.99,6.25,17.24,8.42l4.33,3.61,10.41,3.2-5.15-4.52ZM256.89,346.08l16.43-1.48c-6.21-.94-12.05-.23-18.18.23l-5.38.4,7.13.85ZM263.89,369.33l29.55-1.2c2.79-.11,6.15-.92,7.99-2.85,2.43-2.55,2.09-6.41.89-9.36l-14.65-5.65-10.36-4.75-18.76,2.02-8.45-.76-12.06-1.23.81,16.48c.16,3.3,3.09,5.84,6.43,6.38,6.02.97,12.04,1.2,18.61.94ZM212.49,369.33c6.6.35,12.73-.34,18.9-1.41,8.95-2.29,4.98-12.87,3.53-22.52-9.83-.98-18.95-1.5-28.72-1.74-2.7-.06-5.69-1.85-8.33-2.11l-13.29-1.27c-1.68-.16-3.81.76-5.06,1.82l-8.45,7.19.21,12.43c.03,1.52,1.41,4.09,2.94,4.42,6.13,1.33,11.91,1.81,18.14,2.14l20.12,1.06ZM178.07,341.42l-1.89.24-5.99,5.52c3.34-1.03,4.99-3.13,7.88-5.76ZM127.17,365.86l17.02-7.61c6.87-3.07,13.46-5.98,20.11-9.48,3.83-2.01,7.3-3.92,10.18-7.3-16.27.78-31.67,11.79-45.82,20.08l-11.89,6.96c3.35-.04,6.81-1.06,10.4-2.66ZM169.44,348.49c.42-1.1-.11-1.14-.71-.5l-9.69,4.69-.07.75,10.47-4.93ZM169.14,358.9c1.41-2.5.9-6.01.57-8.68l-20.58,8.05-13.6,5.93c11.68.62,27.86,4.87,33.61-5.29ZM353.42,379.45l-9.48-4.57-10.99-3.38c-8.66-2.67-17.66-2.08-26.34-1.21l18.17,2.68c5.11.75,9.54,1.91,14.28,4.13,4.36,2.04,9.5,2.23,14.36,2.37ZM197.58,371.47c-3.74-1.07-7.82-.28-11.46-.15l-14.18.51c-5.36.19-10.57,1.62-15.75,2.95-5.72,1.47-11.15,1.89-17.07,2.11l-11.7.43c-6.29.23-11.18,5.21-21.05,3.81l-10.13-1.43c-3.59-.51-10.56,2.93-16.58,2.48-3.03-.23-5.72-2.36-8.27-3.86-5.58,1.62-10.83,1.12-16.73-.66,3.62,6.86,13.24,7.39,21.03,6.58,6.7-.69,13.19-.69,19.89.26,7.24,1.03,13.52,7.93,18.64,13.7,5.13,5.77,10.84,10.04,17.77,13.48,2.74,1.36,5.35,3.74,8.32,4.56l14.35,3.99c3.73,1.04,6.81,3.63,10.12,5.59,8.19,4.87,14.9,10.78,21.5,17.66,7.69,8.02,17.83,12.75,28.13,16.7l11.6,4.45,12.17,6.32c18.15.63,46.82,1.03,62.49-5.75l24.91-10.78,21.57-8.97c7.16-11.69,14.42-22.59,22.87-33.2,4.87-6.11,11.33-10.03,18.75-12.21,5.31-1.56,10.1-4.87,11.97-10.52-3.34.12-6.26-.05-9.31-.85l-24.36-6.44c-7.3-1.93-19.89.18-30.58-4.89-3.86-1.83-7.77-2.36-12.02-3.08-9-1.52-17.74-2.91-26.91-2.05-11.22,1.05-19.34,6.47-30.84,6.96-1.73.07-3.84-.98-5.24-1.18l-17.93-2.59-16.98-3.1c-9.47-1.73-18.72-3.19-28.18-2.21,8.96,2.52,17.45,3.87,25.83,6.82,5.97,2.1,11.51,3.55,17.83,4.51,3.39.51,6.72,2.19,10.18,2.94,5.75-1.65,11.46-3.59,17.6-4.01,13.95-.96,29.08,22.89,29.47,37.72-2.53-7.97-4.73-15.75-9.59-22.67-3.07-4.55-6.85-8.53-11.35-11.43s-8.53-2.63-13.17-1.55l-10.26,2.38c4.4,2.32,8.44,6.14,10.82,10.76l-5.47-5.38c-2.21-2.18-4.76-3.91-7.75-4.76-.54,13.19,7.99,25.01,8.49,38.05l-6.85-21.94c-1.73-5.55-3.18-10.89-3.02-16.31l-9.98-2.65c-5.64-.91-10.67-2.12-16.06-3.99-6.43-2.23-13.05-3.71-19.63-5.29l.13,1.74c.02.28-.78.72-1.03.9-7.78,5.44-12.88,13.1-14.9,22.66-1.03-8.53,6.62-17.98,13.59-23.65-5.28.54-9.71,2.92-13.25,6.65-4.89,5.16-8.74,10.97-12.49,17.06-2.43,3.96-3.6,8.14-4.26,12.55-.57-5.13,1.52-9.68,4.01-14,3.12-5.43,6.6-10.48,10.55-15.28,4.21-5.12,9.45-7.51,16.4-8.54l-6.62-1.88ZM397.28,383.06l-5.57-4.5c2.07,4.13,5.41,6.35,9.24,8.67-.4-2.35-2.19-2.98-3.68-4.17ZM172.84,370.45c6.31-.3,12.4-.22,18.45-1.08-10.76-.76-21.56-.95-31.85,1.77l-14.95,3.95c9.57-.41,17.93-4.14,28.35-4.63ZM278.66,375.08l-11.76,2.23c4.33.63,8-.54,11.76-2.23ZM106.05,372.03l-10.82,1.02c-7.32.69-14.23,2.78-21.32,4.46,7.97,6.81,23.45-.44,32.14-5.48ZM69.02,377.31c-5.56-3.7-13.33-4.08-19.91-4.51,4.58,4.47,13.98,5.52,19.91,4.51ZM108.32,380.61l7.33-1.32c-6.07-.83-11.46-.94-17.2-.55l9.87,1.87ZM363.33,435.05c7.2-5.55,13.88-11.06,19.3-18.1l14.76-19.13-8.76,4.29c-7.41,2.09-13.43,6.39-18.04,12.5-7.03,9.3-13.62,18.38-19.67,28.88,4.87-2.13,8.27-5.32,12.41-8.45ZM234.17,470.61c-7.39-5-15.37-7.52-23.81-10.44-8.83-3.06-16.92-8.21-23.69-14.57-4.52-4.24-8.3-8.7-13.3-12.36-5.27-3.85-10.6-7.46-16.37-10.57-3.9-2.1-8.4-2.78-12.96-3.81,4.61,2.88,8.68,5.46,12.38,9.25l14.19,14.54c2.45,2.51,5.87,4.26,8.38,6.57,6.39,5.89,13.57,9.02,21.9,11.03,5.16,1.25,9.69,4.64,14.73,6.38,6.02,2.08,11.95,3.26,18.54,3.97ZM242.88,473.49c6.15,1.56,11.48,4.02,17.19,4.47l33.3,2.62c15.31,1.2,29.38-4.26,39.55-15.54,4.56-5.05,8.29-10.4,11.88-16.29l-18.91,7.71-18.3,8.12c-13.43,5.96-27.22,7.96-41.86,8.33l-22.85.58Z"/>
    <path class="cls-1" d="M248.1,414.98c-1.93-7.12-4.21-14.2-7.1-21.36-1.82-4.52-4.04-7.99-7.81-11.53,4.36,1.56,6.14,5.55,8.09,9.26,2.91,7.61,6.34,14.9,6.82,23.63Z"/>
    <path class="cls-1" d="M135.98,383.35c-1.56,2.4-8.58,8.45-12.4,9.6l10.95-9.83c.23-.03,1.61-.01,1.46.23Z"/>
    <path class="cls-1" d="M155.41,407.25l.84-6.33.9-5.09c.5-2.83,1.49-5.55,3.43-7.47-3.23,6.66-2.46,13.24-5.17,18.89Z"/>
    <path class="cls-1" d="M130.83,383l-10.09,5.6c2.16-2.55,5.61-4.51,8.14-6.07.34-.21,1.29.06,1.94.47Z"/>
  </g>
  <g>
    <path class="cls-1" d="M176.13,555.76h25.05v14.1l-23.36-11.86c-9.79,0-15.4.79-17.75,4.35-5.48,8.3,10.44,19.76,24.4,32.15,10.44,9.09,18.14,14.63,18.14,24.38,0,12.52-11.35,17.13-26.1,17.13h-24.53v-14.1l22.31,11.86c11.88,0,17.09-2.11,18.66-5.4,3.65-7.64-10.18-18.84-10.18-18.84l-20.49-17.92c-9.66-7.51-12.4-13.97-12-20.29.52-6.59,5.09-15.55,25.84-15.55Z"/>
    <path class="cls-1" d="M249.47,636l4.96-6.46-8.87-24.64h-26.36l-7.96,21.61,7.05,9.49h-17.23l8.09-9.49,22.18-61.53-3.26-9.22h11.22l26.23,73.79,5.48,6.46h-21.53ZM244.9,602.93l-12.53-34.92-12.53,34.92h25.05Z"/>
    <path class="cls-1" d="M346.03,595.95c0,22.4-18.01,40.71-40.19,40.71s-40.32-18.31-40.32-40.71,18.01-40.71,40.32-40.71,40.19,18.18,40.19,40.71ZM332.72,587.25c-5.61-17.52-19.05-29.25-32.1-29.25-2.22,0-4.44.4-6.52,1.05-14.88,4.74-21.66,25.17-15.27,45.59,5.48,17.39,19.05,29.25,32.23,29.25,2.09,0,4.31-.4,6.39-1.05,14.88-4.74,21.66-25.17,15.27-45.59Z"/>
    <path class="cls-1" d="M222.71,722.9l4.7-6.46-20.36-41.24-12.4,11.86v29.38l5.22,6.46h-21.53l5.22-6.46v-67.33l-5.22-6.46h21.53l-5.22,6.46v35.84l34.32-32.81-7.31-9.49h18.27l-8.87,9.49-16.44,15.81,23.88,48.49,5.74,6.46h-21.53Z"/>
    <path class="cls-1" d="M317.98,682.85c0,22.4-18.01,40.71-40.19,40.71s-40.32-18.31-40.32-40.71,18.01-40.71,40.32-40.71,40.19,18.18,40.19,40.71ZM304.66,674.15c-5.61-17.52-19.05-29.25-32.1-29.25-2.22,0-4.44.4-6.52,1.05-14.88,4.74-21.66,25.17-15.27,45.59,5.48,17.39,19.05,29.25,32.23,29.25,2.09,0,4.31-.4,6.39-1.05,14.88-4.74,21.66-25.17,15.27-45.59Z"/>
  </g>
  <g>
    <path class="cls-1" d="M82.37,121.59h28.33v15.79l-26.41-13.28c-11.07,0-17.41.88-20.07,4.87-6.2,9.3,11.81,22.14,27.59,36.01,11.81,10.18,20.51,16.38,20.51,27.3,0,14.02-12.84,19.18-29.51,19.18h-27.74v-15.79l25.23,13.28c13.43,0,19.33-2.36,21.1-6.05,4.13-8.56-11.51-21.1-11.51-21.1l-23.17-20.07c-10.92-8.41-14.02-15.64-13.58-22.73.59-7.38,5.75-17.41,29.22-17.41Z"/>
    <path class="cls-1" d="M165.3,211.46l5.61-7.23-10.03-27.59h-29.81l-9,24.2,7.97,10.62h-19.48l9.15-10.62,25.09-68.91-3.69-10.33h12.69l29.66,82.64,6.2,7.23h-24.35ZM160.14,174.42l-14.17-39.11-14.17,39.11h28.33Z"/>
    <path class="cls-1" d="M274.5,166.6c0,25.09-20.36,45.6-45.45,45.6s-45.6-20.51-45.6-45.6,20.36-45.6,45.6-45.6,45.45,20.36,45.45,45.6ZM259.45,156.86c-6.35-19.63-21.54-32.76-36.3-32.76-2.51,0-5.02.44-7.38,1.18-16.82,5.31-24.5,28.19-17.27,51.06,6.2,19.48,21.54,32.76,36.45,32.76,2.36,0,4.87-.44,7.23-1.18,16.82-5.31,24.5-28.19,17.27-51.06Z"/>
    <path class="cls-1" d="M327.18,211.46l5.31-7.23-23.02-46.19-14.02,13.28v32.91l5.9,7.23h-24.35l5.9-7.23v-75.41l-5.9-7.23h24.35l-5.9,7.23v40.14l38.81-36.74-8.26-10.62h20.66l-10.03,10.62-18.59,17.71,27,54.3,6.49,7.23h-24.35Z"/>
    <path class="cls-1" d="M434.9,166.6c0,25.09-20.36,45.6-45.45,45.6s-45.6-20.51-45.6-45.6,20.36-45.6,45.6-45.6,45.45,20.36,45.45,45.6ZM419.85,156.86c-6.35-19.63-21.54-32.76-36.3-32.76-2.51,0-5.02.44-7.38,1.18-16.82,5.31-24.5,28.19-17.27,51.06,6.2,19.48,21.54,32.76,36.45,32.76,2.36,0,4.87-.44,7.23-1.18,16.82-5.31,24.5-28.19,17.27-51.06Z"/>
  </g>
  <g>
    <path class="cls-1" d="M215.98,517.43c0,5.26-3.29,9.54-9.74,9.54h-8.92v9.74h-2.42v-28.78h11.35c6.45,0,9.74,4.28,9.74,9.5ZM213.51,517.48c0-4.07-2.34-7.23-7.36-7.23h-8.84v14.43h8.84c5.01,0,7.36-3.17,7.36-7.19Z"/>
    <path class="cls-1" d="M239.53,529.73h-17.02l-3.12,6.99h-2.67l12.91-28.78h2.79l12.91,28.78h-2.67l-3.12-6.99ZM227.57,518.17l-4.07,9.29h15l-4.11-9.37c-1.64-3.74-2.51-5.67-3.33-7.73h-.08c-.82,2.06-1.73,4.11-3.41,7.81Z"/>
    <path class="cls-1" d="M271.83,517.43c0,5.26-3.29,9.54-9.74,9.54h-8.92v9.74h-2.42v-28.78h11.35c6.45,0,9.74,4.28,9.74,9.5ZM269.37,517.48c0-4.07-2.34-7.23-7.36-7.23h-8.84v14.43h8.84c5.01,0,7.36-3.17,7.36-7.19Z"/>
    <path class="cls-1" d="M277.71,507.94h2.42v28.78h-2.42v-28.78Z"/>
  </g>
  <g>
    <path class="cls-1" d="M148.22,77.2h-2.8c-.05-.36-.16-.68-.31-.97-.16-.28-.36-.53-.61-.73-.25-.2-.53-.35-.85-.46-.32-.11-.67-.16-1.04-.16-.68,0-1.27.17-1.77.5s-.89.82-1.17,1.46-.42,1.41-.42,2.32.14,1.72.42,2.35.67,1.12,1.17,1.44c.5.32,1.08.49,1.75.49.37,0,.71-.05,1.03-.15.32-.1.6-.24.85-.43.25-.19.45-.42.62-.69s.28-.58.34-.93h2.8c-.07.61-.25,1.19-.54,1.75-.29.56-.67,1.05-1.16,1.49-.48.44-1.06.78-1.73,1.04s-1.42.38-2.26.38c-1.17,0-2.21-.26-3.13-.79-.92-.53-1.64-1.29-2.17-2.3s-.8-2.21-.8-3.64.27-2.64.81-3.64c.54-1,1.27-1.77,2.19-2.29s1.96-.79,3.11-.79c.76,0,1.46.11,2.11.32.65.21,1.23.52,1.73.93.5.41.91.91,1.23,1.49.32.59.52,1.26.61,2.02Z"/>
    <path class="cls-1" d="M151.11,85.71v-13.09h2.77v5.4h5.62v-5.4h2.76v13.09h-2.76v-5.41h-5.62v5.41h-2.77Z"/>
    <path class="cls-1" d="M168.21,72.62v13.09h-2.77v-13.09h2.77Z"/>
    <path class="cls-1" d="M182.95,77.2h-2.8c-.05-.36-.16-.68-.31-.97-.16-.28-.36-.53-.61-.73-.25-.2-.53-.35-.85-.46-.32-.11-.67-.16-1.04-.16-.68,0-1.27.17-1.77.5s-.89.82-1.17,1.46-.42,1.41-.42,2.32.14,1.72.42,2.35.67,1.12,1.17,1.44c.5.32,1.08.49,1.75.49.37,0,.71-.05,1.03-.15.32-.1.6-.24.85-.43.25-.19.45-.42.62-.69s.28-.58.34-.93h2.8c-.07.61-.25,1.19-.54,1.75-.29.56-.67,1.05-1.16,1.49-.48.44-1.06.78-1.73,1.04s-1.42.38-2.26.38c-1.17,0-2.21-.26-3.13-.79-.92-.53-1.64-1.29-2.17-2.3s-.8-2.21-.8-3.64.27-2.64.81-3.64c.54-1,1.27-1.77,2.19-2.29s1.96-.79,3.11-.79c.76,0,1.46.11,2.11.32.65.21,1.23.52,1.73.93.5.41.91.91,1.23,1.49.32.59.52,1.26.61,2.02Z"/>
    <path class="cls-1" d="M187.85,85.71h-2.97l4.52-13.09h3.57l4.51,13.09h-2.97l-3.28-10.1h-.1l-3.29,10.1ZM187.67,80.57h7.01v2.16h-7.01v-2.16Z"/>
    <path class="cls-1" d="M210.6,79.95v.22c0,.74-.07,1.34-.2,1.78s-.32.8-.57,1.07-.55.52-.91.75c-.26.17-.5.34-.71.53s-.38.39-.5.61c-.12.22-.18.47-.18.75s.07.55.21.77.33.39.57.51c.24.12.5.18.78.18s.54-.06.79-.18c.25-.12.45-.3.61-.54.16-.24.24-.53.25-.88h2.61c-.02.85-.22,1.56-.61,2.12-.39.56-.9.98-1.54,1.25-.64.28-1.34.41-2.12.41-.84,0-1.59-.14-2.25-.42-.66-.28-1.17-.68-1.54-1.21s-.56-1.17-.56-1.92c0-.5.08-.94.25-1.33s.39-.73.69-1.02c.3-.3.64-.56,1.04-.8.34-.2.61-.41.83-.63.22-.21.38-.47.48-.75.1-.29.16-.64.16-1.05v-.22h2.42ZM209.33,75.86c.43,0,.79.15,1.09.45.3.3.45.66.44,1.09,0,.42-.14.78-.44,1.07-.3.3-.67.45-1.09.45s-.76-.15-1.07-.45c-.3-.3-.46-.66-.47-1.07,0-.29.08-.54.22-.77.14-.23.33-.41.56-.55s.48-.21.75-.21Z"/>
    <path class="cls-1" d="M228.1,79.17c0,1.43-.27,2.64-.81,3.65-.54,1-1.27,1.77-2.2,2.29-.93.53-1.97.79-3.12.79s-2.21-.26-3.13-.79c-.93-.53-1.66-1.29-2.19-2.3s-.81-2.21-.81-3.64.27-2.64.81-3.64c.54-1,1.27-1.77,2.19-2.29.92-.53,1.97-.79,3.13-.79s2.2.26,3.12.79c.93.53,1.66,1.29,2.2,2.29.54,1,.81,2.22.81,3.64ZM225.29,79.17c0-.92-.14-1.71-.41-2.34-.27-.63-.66-1.12-1.16-1.45s-1.08-.49-1.75-.49-1.25.16-1.75.49-.89.81-1.16,1.45c-.28.63-.41,1.42-.41,2.34s.14,1.71.41,2.34c.27.63.66,1.12,1.16,1.45s1.08.49,1.75.49,1.25-.16,1.75-.49.89-.81,1.16-1.45c.28-.63.41-1.42.41-2.34ZM221.01,81.16h2.35l1.18,1.52,1.16,1.36,2.19,2.75h-2.58l-1.51-1.85-.77-1.1-2.03-2.67Z"/>
    <path class="cls-1" d="M239.15,72.62h2.77v8.5c0,.96-.23,1.79-.68,2.51-.45.72-1.09,1.27-1.9,1.67s-1.76.6-2.85.6-2.04-.2-2.85-.6-1.45-.96-1.9-1.67c-.45-.72-.68-1.55-.68-2.51v-8.5h2.77v8.27c0,.5.11.94.33,1.33s.53.69.93.91c.4.22.87.33,1.4.33s1-.11,1.4-.33c.4-.22.71-.53.93-.91s.33-.83.33-1.33v-8.27Z"/>
    <path class="cls-1" d="M245.09,85.71v-13.09h8.82v2.28h-6.05v3.12h5.6v2.28h-5.6v3.13h6.08v2.28h-8.85ZM248.54,71.35l1.36-2.91h2.52l-1.95,2.91h-1.92Z"/>
    <path class="cls-1" d="M266.74,85.71h-4.64v-13.09h4.68c1.32,0,2.45.26,3.4.78.95.52,1.68,1.27,2.2,2.25.51.98.77,2.14.77,3.5s-.26,2.54-.77,3.52-1.25,1.73-2.21,2.26-2.1.79-3.43.79ZM264.87,83.34h1.76c.82,0,1.51-.15,2.07-.44s.98-.75,1.27-1.36.42-1.41.42-2.39-.14-1.76-.42-2.37c-.28-.61-.71-1.07-1.26-1.36-.56-.29-1.25-.43-2.07-.43h-1.76v8.35Z"/>
    <path class="cls-1" d="M278.86,72.62v13.09h-2.77v-13.09h2.77Z"/>
    <path class="cls-1" d="M293.6,77.2h-2.8c-.05-.36-.16-.68-.31-.97-.16-.28-.36-.53-.61-.73-.25-.2-.53-.35-.85-.46-.32-.11-.67-.16-1.04-.16-.68,0-1.27.17-1.77.5s-.89.82-1.17,1.46-.42,1.41-.42,2.32.14,1.72.42,2.35.67,1.12,1.17,1.44c.5.32,1.08.49,1.75.49.37,0,.71-.05,1.03-.15.32-.1.6-.24.85-.43.25-.19.45-.42.62-.69s.28-.58.34-.93h2.8c-.07.61-.25,1.19-.54,1.75-.29.56-.67,1.05-1.16,1.49-.48.44-1.06.78-1.73,1.04s-1.42.38-2.26.38c-1.17,0-2.21-.26-3.13-.79-.92-.53-1.64-1.29-2.17-2.3s-.8-2.21-.8-3.64.27-2.64.81-3.64c.54-1,1.27-1.77,2.19-2.29s1.96-.79,3.11-.79c.76,0,1.46.11,2.11.32.65.21,1.23.52,1.73.93.5.41.91.91,1.23,1.49.32.59.52,1.26.61,2.02Z"/>
    <path class="cls-1" d="M296.49,85.71v-13.09h8.82v2.28h-6.05v3.12h5.6v2.28h-5.6v3.13h6.08v2.28h-8.85Z"/>
    <path class="cls-1" d="M315.52,76.39c-.05-.52-.27-.92-.66-1.2-.39-.29-.92-.43-1.58-.43-.45,0-.83.06-1.14.19-.31.12-.55.3-.71.52s-.25.47-.25.75c0,.23.04.44.15.61s.26.32.45.45c.19.13.41.23.67.33.25.09.52.17.81.23l1.18.28c.57.13,1.1.3,1.57.51s.89.48,1.24.79c.35.31.62.68.82,1.1.19.42.29.91.3,1.45,0,.8-.21,1.5-.61,2.08-.4.59-.98,1.04-1.74,1.36-.76.32-1.67.48-2.73.48s-1.98-.16-2.76-.49c-.78-.32-1.39-.8-1.83-1.44-.44-.64-.67-1.43-.69-2.37h2.68c.03.44.16.8.38,1.1.22.29.52.51.9.66.38.15.8.22,1.28.22s.88-.07,1.22-.2.62-.33.81-.57c.19-.24.29-.52.29-.84,0-.29-.09-.54-.26-.74s-.42-.37-.75-.51c-.33-.14-.73-.27-1.21-.38l-1.43-.36c-1.1-.27-1.98-.69-2.62-1.26-.64-.57-.96-1.34-.95-2.31,0-.79.21-1.49.64-2.08.43-.59,1.02-1.06,1.77-1.39.75-.33,1.6-.5,2.56-.5s1.82.17,2.55.5c.73.33,1.29.79,1.7,1.39.4.59.61,1.28.63,2.06h-2.65Z"/>
    <path class="cls-1" d="M323.4,81.79v-.22c0-.75.07-1.34.2-1.78s.32-.8.57-1.07c.25-.27.55-.52.91-.74.26-.17.5-.35.71-.53.21-.18.38-.39.5-.61s.19-.47.19-.75c0-.29-.07-.55-.21-.77s-.33-.39-.57-.51c-.24-.12-.5-.18-.78-.18s-.54.06-.79.18-.45.3-.61.54c-.16.24-.24.53-.26.88h-2.61c.02-.85.23-1.56.61-2.11.39-.56.9-.97,1.54-1.25.64-.28,1.34-.41,2.12-.41.85,0,1.6.14,2.25.42s1.16.68,1.54,1.21c.37.53.56,1.17.56,1.91,0,.5-.08.94-.25,1.33s-.39.73-.69,1.02c-.29.3-.64.56-1.04.8-.34.2-.61.41-.83.63-.21.22-.38.47-.48.75s-.16.64-.16,1.05v.22h-2.42ZM324.66,85.88c-.43,0-.79-.15-1.09-.45-.3-.3-.45-.66-.44-1.08,0-.42.14-.78.44-1.07.3-.3.66-.45,1.09-.45s.76.15,1.07.45c.31.3.46.66.47,1.07,0,.28-.08.54-.22.77-.14.23-.33.42-.56.56-.23.14-.48.21-.75.21Z"/>
  </g>
</svg>